<svg width="64" height="14" viewBox="0 0 64 14" fill="none" xmlns="http://www.w3.org/2000/svg"><path d="M2.527 2.36l.678-.34L4.223 1v7.139m8.14-4.759l-.34 1.02-.678.68-1.018.34h-.339l-1.017-.34-.679-.68-.339-1.02v-.34l.34-1.02.678-.68L9.988 1h.34l1.017.34.678.68.34 1.36zm0 0v1.7l-.34 1.7-.678 1.02-1.018.339H9.65l-1.017-.34-.34-.68M16.772 1l-1.018.34-.678 1.02-.34 1.7v1.02l.34 1.7.678 1.02 1.018.339h.678l1.018-.34.678-1.02.34-1.7V4.06l-.34-1.7-.678-1.019L17.45 1h-.678zm25.439 1.36l.51-.34L43.737 1v7.139m8.141-4.759l-.34 1.02-.678.68-1.017.34h-.34l-1.017-.34-.678-.68-.34-1.02v-.34l.34-1.02.678-.68L49.503 1h.34l1.017.34.678.68.34 1.36zm0 0v1.7l-.34 1.7-.678 1.02-1.017.339h-.679l-1.017-.34-.34-.68M56.288 1l-1.018.34-.678 1.02-.34 1.7v1.02l.34 1.7.678 1.02 1.017.339h.679l1.017-.34.679-1.02.339-1.7V4.06l-.34-1.7-.678-1.019L56.966 1h-.678zM38.31 10.008H1" stroke="#000" stroke-width=".72" stroke-miterlimit="10" stroke-linecap="round" stroke-linejoin="round"/><path fill-rule="evenodd" clip-rule="evenodd" d="M27.796 6.78l-.679-.68-6.444 7.819 7.123-7.14z" fill="#000"/><path fill-rule="evenodd" clip-rule="evenodd" d="M27.117 6.1l-6.444 7.819-.678-.68 7.122-7.14z" fill="#000"/><path d="M26.948 10.008h35.784" stroke="#000" stroke-width=".72" stroke-miterlimit="10" stroke-linecap="round" stroke-linejoin="round"/><path fill-rule="evenodd" clip-rule="evenodd" d="M36.615 6.78l-.848-.68-6.275 7.819 7.123-7.14z" fill="#000"/><path fill-rule="evenodd" clip-rule="evenodd" d="M35.767 6.1l-6.275 7.819-.678-.68 6.953-7.14zm-1.357 7.139l.848.68 6.275-7.82-7.123 7.14z" fill="#000"/><path fill-rule="evenodd" clip-rule="evenodd" d="M35.257 13.918L41.532 6.1l.679.68-6.954 7.138z" fill="#000"/></svg>